<?xml version="1.0" encoding="utf-8"?>
<!-- Generator: Adobe Illustrator 18.0.0, SVG Export Plug-In . SVG Version: 6.00 Build 0)  -->
<!DOCTYPE svg PUBLIC "-//W3C//DTD SVG 1.1//EN" "http://www.w3.org/Graphics/SVG/1.1/DTD/svg11.dtd">
<svg version="1.1" id="Layer_1" xmlns="http://www.w3.org/2000/svg" xmlns:xlink="http://www.w3.org/1999/xlink" x="0px" y="0px"
	 viewBox="0 0 57 36" enable-background="new 0 0 57 36" xml:space="preserve">
<path fill="#2DB992" d="M46.2,0c-5.4,0-10.1,3.4-12.5,5.7C32.4,2.2,29.3,0,23.9,0C19.2,0,15,2.6,12.4,4.8v-4H0v15h5.4
	c0.5,0,0.9,0.4,0.9,0.9c0,0.5-0.4,0.9-0.9,0.9H0v2h2.4c0.5,0,0.9,0.4,0.9,0.9s-0.4,0.9-0.9,0.9H0V23h5.1C5.6,23,6,23.4,6,23.9
	c0,0.5-0.4,0.9-0.9,0.9H0v1.8h2.4c0.5,0,0.9,0.4,0.9,0.9c0,0.5-0.4,0.9-0.9,0.9H0v1.8h5.1C5.6,30.1,6,30.5,6,31
	c0,0.5-0.4,0.9-0.9,0.9H0V36h12.4V13.1c1.6-1.7,4.2-3.6,6.6-3.6c2.9,0,3.4,1.9,3.4,4.7V36h12.3V13.3c1.6-1.8,4.2-3.8,6.7-3.8
	c2.8,0,3.2,1.9,3.2,4.7V36H57V11.3C57,4.2,53.8,0,46.2,0z"/>
</svg>
